PathFileType	4	(X/Y/Z)	D:\TRACE\spot_10-12-23\spot_arm_body_motion_1_8-v60.trc
DataRate	CameraRate	NumFrames	NumMarkers	Units	OrigDataRate	OrigDataStartFrame	OrigNumFrames
100.00	100.00	      24	9	mm	100.00	4376	      7000
Frame#	Time	front left toe			Front right toe			aft left toe			aft right toe			Arm			FL body			FR body			AL Body			AR Body			
		X1	Y1	Z1	X2	Y2	Z2	X3	Y3	Z3	X4	Y4	Z4	X5	Y5	Z5	X6	Y6	Z6	X7	Y7	Z7	X8	Y8	Z8	X9	Y9	Z9	

4376	43.750	-179.04680	34.27979	-411.44437	257.77884	39.67138	-442.29251	-199.42680	15.47017	213.38049	280.36368	21.94502	144.42763	51.65193	804.67743	-715.97919	-69.89281	627.07587	-476.64511	83.95920	630.97992	-480.03824	-54.78796	554.07123	402.30972	86.87117	552.14526	401.83875	
4377	43.760	-179.62102	34.50061	-411.69830	257.00192	39.21976	-442.25446	-199.91801	15.08243	213.51448	279.33679	22.04512	144.66003	47.78633	804.68170	-716.75421	-69.69201	626.55475	-477.56906	84.13913	630.55823	-480.75464	-56.62292	554.36749	401.62363	85.41910	552.49768	401.40384	
4378	43.770	-180.32037	34.55760	-411.87506	256.48679	38.93411	-442.34778	-201.23221	15.73392	213.04234	278.61270	22.07173	144.63399	43.77183	804.63025	-717.21320	-69.54980	626.02356	-478.19977	83.41565	629.75629	-480.84726	-57.43783	554.58362	401.18741	84.77457	552.59448	401.27133	
4379	43.780	-181.09367	34.39257	-411.91391	255.93437	38.89419	-442.20950	-202.18219	15.84559	212.94292	277.63477	21.91328	144.39781	40.65810	804.58063	-717.44128	-69.92882	625.17676	-478.49545	82.02302	629.24115	-481.46814	-57.85234	554.76154	400.87354	84.45639	552.77826	401.39676	
4380	43.790	-182.02734	34.04111	-411.85712	254.90112	38.76294	-442.26547	-202.38756	15.39241	213.21532	277.10529	21.78688	144.29895	38.38134	804.50433	-717.47430	-70.69935	624.21002	-478.62872	82.97007	627.34680	-481.12671	-57.70981	554.80615	400.69827	84.27419	552.89673	401.08661	
4381	43.800	-182.99246	33.67381	-411.65424	253.72247	38.78134	-442.26483	-203.78456	16.31992	213.05701	276.56274	21.57141	144.13947	37.50251	804.47028	-717.50763	-71.91217	623.10767	-478.81592	81.68607	626.47498	-481.58304	-57.23579	554.92792	400.66217	84.19324	553.21747	400.22815	
4382	43.810	-183.92926	33.45658	-411.52740	252.96741	38.76864	-442.43411	-203.82816	16.34867	212.98668	276.06573	21.50287	144.02263	37.71679	804.55219	-717.31281	-73.01881	622.57001	-478.95514	80.54632	626.51367	-482.89111	-56.49861	555.15979	400.61209	85.01384	553.36804	400.03116	
4383	43.820	-184.82486	33.32645	-411.55768	251.80551	38.67946	-442.91608	-204.25195	16.71353	212.94559	274.77945	20.83652	143.57616	38.65632	804.64526	-716.97565	-74.66073	621.77167	-479.09262	77.90109	625.84161	-482.77734	-55.66399	555.38403	400.73621	85.88950	553.54797	399.45566	
4384	43.830	-185.69530	33.02615	-411.31152	250.92622	38.52448	-443.27820	-204.80762	16.92589	212.92079	274.24277	20.77561	143.30482	39.91465	804.55847	-716.67517	-76.06208	621.05817	-478.93927	77.17192	625.07385	-483.08279	-55.19058	555.53595	400.75742	86.48033	553.91193	399.33859	
4385	43.840	-186.62227	32.75324	-411.27011	250.37868	38.54905	-443.24915	-205.52046	17.08451	212.91144	273.52164	20.64122	143.09311	41.19135	804.37872	-716.30701	-76.93445	620.38617	-478.85648	76.84451	624.51703	-483.54977	-55.06992	555.82703	401.06067	86.69968	553.90320	399.20151	
4386	43.850	-187.24323	32.52383	-411.27222	249.35118	38.14161	-443.46268	-206.23343	17.15370	212.94090	272.85452	20.65575	143.04469	42.22202	804.25458	-715.88416	-77.52917	619.63116	-478.73676	76.06792	623.69373	-483.34970	-55.10122	555.75421	401.09161	86.63635	553.76630	399.17599	
4387	43.860	-187.70792	32.41246	-411.42377	248.57872	37.79099	-443.35260	-206.93390	17.14414	212.85524	272.72397	21.37531	143.33780	42.57424	804.28833	-715.62891	-77.56602	619.42328	-478.67136	76.36651	623.22711	-483.18762	-55.40491	555.73907	401.20575	86.27075	553.67450	399.44818	
4388	43.870	-188.33121	32.67095	-411.64355	248.08760	37.41776	-443.07922	-207.96805	17.33324	212.69836	271.80524	21.50539	143.43782	42.48551	804.19635	-715.51868	-77.08264	619.25397	-478.60693	76.73651	622.83630	-482.85349	-55.91998	555.79340	401.35254	85.64676	553.43317	399.65778	
4389	43.880	-188.85312	32.94056	-411.89212	247.58495	37.09266	-442.83215	-208.84714	17.31849	212.63405	270.92160	21.57205	143.51839	41.83904	804.11285	-715.44446	-76.28404	618.99982	-478.45349	77.41063	622.58887	-482.83188	-57.28930	556.13550	401.43726	84.59385	553.48779	400.26785	
4390	43.890	-189.24417	32.94357	-411.98627	247.46498	36.91049	-442.85461	-209.51201	17.22280	212.65962	270.27774	21.72377	143.72569	40.55496	803.91992	-715.26068	-75.41652	618.70734	-478.17172	77.94186	622.35669	-482.25974	-57.89221	555.40564	401.57565	84.18758	553.13348	401.23560	
4391	43.900	-189.66286	32.90290	-412.15204	247.28624	36.52792	-442.52869	-210.41815	17.03477	212.63440	269.79800	21.75580	143.74945	38.71412	803.80005	-715.18329	-74.45515	618.21594	-477.92548	79.34876	621.74841	-481.68701	-58.76715	554.90674	401.90073	82.66138	552.73578	401.05325	
4392	43.910	-190.14522	32.88991	-412.42764	246.63422	35.91596	-442.66122	-211.22330	17.02266	212.50743	268.92709	21.79422	143.76526	36.96936	803.57709	-715.14191	-73.62531	617.92139	-477.64056	80.28847	621.27814	-481.16101	-59.46166	554.80176	402.22180	82.51740	552.53302	402.46732	
4393	43.920	-190.68964	32.87921	-412.51035	245.88440	35.56617	-442.86459	-211.78329	17.26038	212.29996	268.10941	21.80438	143.79753	35.14188	803.61005	-715.08429	-72.92152	617.71429	-477.38391	80.72572	621.19757	-480.81168	-60.03611	555.32422	402.71924	82.07223	552.33026	402.52054	
4394	43.930	-191.15952	32.83306	-412.51529	245.12933	35.33870	-443.03229	-212.55609	17.67521	212.24455	267.57950	21.85115	143.73303	33.18209	803.65942	-715.09747	-72.71027	617.48254	-477.01410	80.95789	620.77667	-479.82813	-59.41258	554.98840	403.20605	82.21508	552.28027	402.75110	
4395	43.940	-191.93385	32.51723	-412.47067	244.48044	35.25488	-442.97089	-212.86787	17.76506	212.23724	267.23459	21.78915	143.69099	31.78225	803.27747	-715.03583	-72.62346	617.01837	-476.28549	81.14845	620.17651	-479.32327	-58.47973	554.73523	403.51547	82.64145	552.23364	403.36414	
4396	43.950	-192.69011	32.10978	-412.53955	244.10182	35.21323	-443.01868	-213.29124	17.91410	212.23174	266.17026	21.15778	143.45282	30.56394	802.94012	-715.01257	-72.77402	616.36554	-475.67844	80.99831	619.48578	-479.32321	-58.04551	554.80011	404.23282	83.33237	552.14294	403.95377	
4397	43.960	-193.16432	31.77758	-412.41705	243.50565	34.95389	-443.00293	-213.60622	18.08500	212.27873	265.82407	21.13206	143.43309	29.85573	802.63312	-715.05243	-73.13076	615.71826	-475.05002	80.57307	619.01617	-478.77209	-57.60950	554.87970	405.12421	83.95469	552.14496	404.41666	
4398	43.970	-193.71902	31.46915	-412.27957	242.88837	34.73021	-443.17294	-213.41858	17.88147	212.47784	266.00089	21.63592	143.45546	29.69364	802.34985	-714.93787	-73.58512	615.22437	-474.12512	79.93785	618.47723	-477.91052	-56.85605	554.79895	405.84238	84.99153	552.21722	404.84464	
4399	43.980	-194.36252	31.33409	-412.11554	241.99774	34.49656	-443.28687	-213.66269	18.15489	212.52687	265.56921	21.61624	143.33812	29.59748	802.10651	-714.96149	-73.92236	614.75641	-473.56198	79.81347	618.09369	-477.84744	-55.57210	554.79694	406.57611	86.05748	552.53387	405.67264	
